# xmcd
#
# Track frame offsets: 
#        150
#        41617
#        84372
#        104647
#        125210
#        163957
#        196672
#        232002
#
# Disc length: 3739 seconds
#
# Revision: 0
# Processed by: cddbd v1.5.2PL0 Copyright (c) Steve Scherf et al.
# Submitted via: ExactAudioCopy v1.0b1
#
DISCID=6c0e9908
DTITLE=Thord Svedlund, Umea Symphony Orchestra - Vainberg: Chamber sym
DTITLE=phonies nos. 1 and 4
DYEAR=1998
DGENRE=Classical
TTITLE0=Chamber symphony, no. 01   Allegro  Op. 145 
TTITLE1=Chamber symphony, no. 01   Andante  Op. 145 
TTITLE2=Chamber symphony, no. 01   Allegretto  Op. 145 
TTITLE3=Chamber symphony, no. 01   Presto  Op. 145
TTITLE4=Chamber symphony, no. 04   Lento -  Op. 153
TTITLE5=Chamber symphony, no. 04   Allegro molto - Moderato -  Op. 153
TTITLE6=Chamber symphony, no. 04   Adagio -  Op. 153
TTITLE7=Chamber symphony, no. 04   Meno mosso - Andantino - Adagissimo
TTITLE7=Op. 153
EXTD=
EXTT0=
EXTT1=
EXTT2=
EXTT3=
EXTT4=
EXTT5=
EXTT6=
EXTT7=
PLAYORDER=
